<svg width="24" height="25" viewBox="0 0 24 25" fill="none" xmlns="http://www.w3.org/2000/svg">
<path d="M8.89844 20.8477V20.8477C8.89844 22.2328 10.0213 23.3557 11.4065 23.3557V23.3557C12.7916 23.3557 13.9145 22.2328 13.9145 20.8477V20.8477" stroke="#2E2E2E" stroke-width="2" stroke-linejoin="bevel"/>
<mask id="path-2-outside-1_310_933" maskUnits="userSpaceOnUse" x="0" y="0" width="24" height="23" fill="black">
<rect fill="white" width="24" height="23"/>
<path d="M11.4053 2C12.4441 2.00002 13.2861 2.84202 13.2861 3.88086V3.8877C15.9882 4.04268 17.658 6.83736 17.6758 9.59863C17.6873 11.3992 18.5906 14.0514 19.0205 15.2129C20.4003 15.502 21.4363 16.7267 21.4365 18.1924C21.4365 18.6646 21.2711 19.1055 20.832 19.2793C19.8962 19.6492 17.5458 20.165 11.7178 20.165C5.8901 20.165 3.54041 19.6492 2.60449 19.2793C2.16517 19.1056 2.00006 18.6648 2 18.1924C2.00016 16.9973 2.68995 15.9646 3.69238 15.4668C4.06345 14.4919 5.1233 11.547 5.13574 9.59863C5.1535 6.83736 6.82233 4.04267 9.52441 3.8877V3.88086C9.52441 2.84201 10.3664 2 11.4053 2Z"/>
</mask>
<path d="M11.4053 2L11.4053 0H11.4053V2ZM13.2861 3.8877H11.2861V5.77627L13.1716 5.88441L13.2861 3.8877ZM17.6758 9.59863L19.6757 9.58586L19.6757 9.58577L17.6758 9.59863ZM19.0205 15.2129L17.1449 15.9071L17.5285 16.9437L18.6103 17.1704L19.0205 15.2129ZM21.4365 18.1924L23.4365 18.1926L23.4365 18.1921L21.4365 18.1924ZM20.832 19.2793L21.5673 21.1392L21.5682 21.1389L20.832 19.2793ZM11.7178 20.165L11.7178 22.165L11.7178 22.165L11.7178 20.165ZM2.60449 19.2793L1.86916 21.1392L1.8693 21.1393L2.60449 19.2793ZM2 18.1924L-4.51803e-08 18.1921L1.41009e-08 18.1926L2 18.1924ZM3.69238 15.4668L4.58196 17.2581L5.2831 16.9099L5.56157 16.1782L3.69238 15.4668ZM5.13574 9.59863L3.13578 9.58577L3.13578 9.58587L5.13574 9.59863ZM9.52441 3.8877L9.63894 5.88441L11.5244 5.77627V3.8877H9.52441ZM11.4053 2L11.4052 4C11.3396 4 11.2861 3.94664 11.2861 3.88086H13.2861H15.2861C15.2861 1.7374 13.5486 4.97189e-05 11.4053 5.38095e-10L11.4053 2ZM13.2861 3.88086H11.2861V3.8877H13.2861H15.2861V3.88086H13.2861ZM13.2861 3.8877L13.1716 5.88441C13.7973 5.9203 14.377 6.25011 14.8587 6.92625C15.3556 7.62385 15.6693 8.60352 15.6758 9.61149L17.6758 9.59863L19.6757 9.58577C19.6645 7.83248 19.1344 6.03417 18.1165 4.60536C17.0833 3.1551 15.4771 2.01008 13.4007 1.89098L13.2861 3.8877ZM17.6758 9.59863L15.6758 9.6114C15.6833 10.7777 15.9685 12.0933 16.2613 13.1703C16.5635 14.2815 16.9184 15.2953 17.1449 15.9071L19.0205 15.2129L20.8962 14.5187C20.6927 13.969 20.381 13.076 20.1212 12.1206C19.852 11.1309 19.6798 10.2201 19.6757 9.58586L17.6758 9.59863ZM19.0205 15.2129L18.6103 17.1704C19.0817 17.2691 19.4365 17.6915 19.4365 18.1926L21.4365 18.1924L23.4365 18.1921C23.4362 15.762 21.7189 13.7349 19.4307 13.2554L19.0205 15.2129ZM21.4365 18.1924L19.4365 18.1921C19.4365 18.2143 19.4299 18.1123 19.5129 17.9477C19.6139 17.7471 19.8138 17.5314 20.0959 17.4197L20.832 19.2793L21.5682 21.1389C23.1218 20.5239 23.4364 19.0265 23.4365 18.1926L21.4365 18.1924ZM20.832 19.2793L20.0968 17.4194C19.5336 17.642 17.5063 18.165 11.7178 18.165L11.7178 20.165L11.7178 22.165C17.5853 22.165 20.2588 21.6565 21.5673 21.1392L20.832 19.2793ZM11.7178 20.165L11.7178 18.165C5.92971 18.165 3.90299 17.642 3.33969 17.4193L2.60449 19.2793L1.8693 21.1393C3.17783 21.6565 5.85049 22.165 11.7178 22.165L11.7178 20.165ZM2.60449 19.2793L3.33982 17.4194C3.62205 17.531 3.82237 17.747 3.92368 17.9481C4.0067 18.1129 4 18.215 4 18.1921L2 18.1924L1.41009e-08 18.1926C9.89144e-05 19.0255 0.313795 20.5243 1.86916 21.1392L2.60449 19.2793ZM2 18.1924L4 18.1926C4.00005 17.7879 4.23149 17.4321 4.58196 17.2581L3.69238 15.4668L2.8028 13.6755C1.14841 14.4971 0.000259845 16.2066 1.71252e-08 18.1921L2 18.1924ZM3.69238 15.4668L5.56157 16.1782C5.75789 15.6624 6.13762 14.623 6.47245 13.4442C6.79578 12.3059 7.12768 10.8678 7.1357 9.6114L5.13574 9.59863L3.13578 9.58587C3.13137 10.2779 2.92712 11.2864 2.62465 12.3513C2.33367 13.3757 1.99794 14.2962 1.8232 14.7554L3.69238 15.4668ZM5.13574 9.59863L7.1357 9.61149C7.14218 8.60327 7.45578 7.62353 7.95255 6.926C8.43399 6.24998 9.0134 5.92029 9.63894 5.88441L9.52441 3.8877L9.40989 1.89098C7.33335 2.01008 5.72729 3.15522 4.69436 4.6056C3.67675 6.03448 3.14706 7.83273 3.13578 9.58577L5.13574 9.59863ZM9.52441 3.8877H11.5244V3.88086H9.52441H7.52441V3.8877H9.52441ZM9.52441 3.88086H11.5244C11.5244 3.94658 11.471 4 11.4053 4V2V0C9.26185 0 7.52441 1.73744 7.52441 3.88086H9.52441Z" fill="#2E2E2E" mask="url(#path-2-outside-1_310_933)"/>
</svg>
