<svg width="44" height="17" viewBox="0 0 44 17" fill="none" xmlns="http://www.w3.org/2000/svg">
<path d="M26.912 2.436H28.074V11.718H26.912V2.436ZM19.94 13.86H28.466V14.812H19.94V13.86ZM19.94 10.864H21.102V14.308H19.94V10.864ZM20.99 3.136H21.956V4.41C21.956 5.24067 21.8113 6.02 21.522 6.748C21.2327 7.46667 20.822 8.10133 20.29 8.652C19.7673 9.19333 19.1513 9.60867 18.442 9.898L17.826 8.974C18.47 8.722 19.0253 8.36267 19.492 7.896C19.968 7.42933 20.3367 6.89733 20.598 6.3C20.8593 5.69333 20.99 5.06333 20.99 4.41V3.136ZM21.2 3.136H22.166V4.41C22.166 4.886 22.2407 5.348 22.39 5.796C22.5393 6.23467 22.754 6.64533 23.034 7.028C23.314 7.41067 23.6453 7.75133 24.028 8.05C24.42 8.33933 24.8493 8.568 25.316 8.736L24.714 9.66C24.014 9.38933 23.398 8.99733 22.866 8.484C22.3433 7.96133 21.9327 7.35467 21.634 6.664C21.3447 5.964 21.2 5.21267 21.2 4.41V3.136ZM31.7969 3.696H39.9449V4.648H31.7969V3.696ZM30.5789 12.348H42.0169V13.314H30.5789V12.348ZM35.0309 7.826H36.1789V12.838H35.0309V7.826ZM39.4969 3.696H40.6589V4.942C40.6589 5.46467 40.6496 6.01533 40.6309 6.594C40.6216 7.17267 40.5842 7.80733 40.5189 8.498C40.4629 9.18867 40.3556 9.95867 40.1969 10.808L39.0209 10.668C39.2636 9.45467 39.4036 8.39067 39.4409 7.476C39.4782 6.552 39.4969 5.70733 39.4969 4.942V3.696Z" fill="#6C6C6C"/>
<rect x="0.5" y="13.5" width="10" height="2" rx="0.5" stroke="#6C6C6C"/>
<path d="M5.54346 6.06543C7.60846 6.0655 9.28271 7.73967 9.28271 9.80469V12.8916H1.8042V9.80469C1.8042 7.73962 3.47839 6.06543 5.54346 6.06543Z" stroke="#6C6C6C"/>
<mask id="path-4-outside-1_796_2" maskUnits="userSpaceOnUse" x="4.0542" y="9.78223" width="3" height="4" fill="black">
<rect fill="white" x="4.0542" y="9.78223" width="3" height="4"/>
<path d="M5.54346 10.7822C5.81351 10.7822 6.03258 11.0015 6.03271 11.2715C6.03271 11.4841 5.89608 11.6631 5.70654 11.7305V12.7383H5.38037V11.7305C5.19084 11.6631 5.0542 11.4841 5.0542 11.2715C5.05434 11.0015 5.2734 10.7822 5.54346 10.7822Z"/>
</mask>
<path d="M5.54346 10.7822L5.54346 9.78223L5.54346 10.7822ZM6.03271 11.2715L7.03271 11.2715L7.03271 11.271L6.03271 11.2715ZM5.70654 11.7305L5.37155 10.7882L4.70654 11.0247V11.7305H5.70654ZM5.70654 12.7383V13.7383H6.70654V12.7383H5.70654ZM5.38037 12.7383H4.38037V13.7383H5.38037V12.7383ZM5.38037 11.7305H6.38037V11.0247L5.71537 10.7882L5.38037 11.7305ZM5.0542 11.2715L4.0542 11.271V11.2715H5.0542ZM5.54346 10.7822V11.7822C5.26072 11.7822 5.03286 11.5534 5.03271 11.272L6.03271 11.2715L7.03271 11.271C7.0323 10.4496 6.3663 9.78223 5.54346 9.78223V10.7822ZM6.03271 11.2715H5.03271C5.03271 11.0399 5.18261 10.8554 5.37155 10.7882L5.70654 11.7305L6.04154 12.6727C6.60954 12.4707 7.03271 11.9283 7.03271 11.2715H6.03271ZM5.70654 11.7305H4.70654V12.7383H5.70654H6.70654V11.7305H5.70654ZM5.70654 12.7383V11.7383H5.38037V12.7383V13.7383H5.70654V12.7383ZM5.38037 12.7383H6.38037V11.7305H5.38037H4.38037V12.7383H5.38037ZM5.38037 11.7305L5.71537 10.7882C5.9043 10.8554 6.0542 11.0399 6.0542 11.2715H5.0542H4.0542C4.0542 11.9283 4.47738 12.4707 5.04538 12.6727L5.38037 11.7305ZM5.0542 11.2715L6.0542 11.272C6.05406 11.5534 5.82619 11.7822 5.54346 11.7822L5.54346 10.7822L5.54346 9.78223C4.72061 9.78223 4.05462 10.4496 4.0542 11.271L5.0542 11.2715Z" fill="#6C6C6C" mask="url(#path-4-outside-1_796_2)"/>
</svg>
