<svg width="44" height="17" viewBox="0 0 44 17" fill="none" xmlns="http://www.w3.org/2000/svg">
<path d="M24.448 5.488H27.262V6.454H24.448V5.488ZM26.954 2.422H28.102V9.31H26.954V2.422ZM20.01 9.912H21.158V11.466H26.954V9.912H28.102V14.924H20.01V9.912ZM21.158 12.39V13.972H26.954V12.39H21.158ZM20.92 3.416H21.872V4.452C21.872 5.21733 21.7227 5.936 21.424 6.608C21.1347 7.28 20.724 7.868 20.192 8.372C19.66 8.876 19.044 9.25867 18.344 9.52L17.742 8.596C18.2087 8.428 18.6333 8.204 19.016 7.924C19.408 7.644 19.7487 7.322 20.038 6.958C20.3273 6.58467 20.5467 6.188 20.696 5.768C20.8453 5.33867 20.92 4.9 20.92 4.452V3.416ZM21.144 3.416H22.096V4.452C22.096 4.99333 22.222 5.52067 22.474 6.034C22.726 6.538 23.0853 6.99067 23.552 7.392C24.0187 7.784 24.5553 8.092 25.162 8.316L24.574 9.226C23.8833 8.974 23.2813 8.61 22.768 8.134C22.2547 7.658 21.8533 7.10267 21.564 6.468C21.284 5.824 21.144 5.152 21.144 4.452V3.416ZM18.106 3.178H24.868V4.13H18.106V3.178ZM35.7029 2.87H36.7249V3.584C36.7249 4.06933 36.6316 4.52667 36.4449 4.956C36.2582 5.376 36.0016 5.76333 35.6749 6.118C35.3576 6.47267 34.9842 6.79 34.5549 7.07C34.1256 7.35 33.6589 7.58333 33.1549 7.77C32.6602 7.95667 32.1516 8.092 31.6289 8.176L31.1529 7.238C31.6196 7.17267 32.0722 7.06067 32.5109 6.902C32.9589 6.74333 33.3742 6.552 33.7569 6.328C34.1396 6.09467 34.4756 5.83333 34.7649 5.544C35.0636 5.25467 35.2922 4.94667 35.4509 4.62C35.6189 4.284 35.7029 3.93867 35.7029 3.584V2.87ZM35.8989 2.87H36.9069V3.584C36.9069 3.93867 36.9909 4.27933 37.1589 4.606C37.3269 4.93267 37.5556 5.24067 37.8449 5.53C38.1436 5.81933 38.4842 6.08067 38.8669 6.314C39.2496 6.54733 39.6602 6.74333 40.0989 6.902C40.5469 7.06067 40.9996 7.17267 41.4569 7.238L40.9949 8.176C40.4722 8.092 39.9636 7.95667 39.4689 7.77C38.9742 7.574 38.5076 7.336 38.0689 7.056C37.6396 6.776 37.2616 6.45867 36.9349 6.104C36.6176 5.74933 36.3656 5.362 36.1789 4.942C35.9922 4.51267 35.8989 4.06 35.8989 3.584V2.87ZM35.7029 10.276H36.8509V15.092H35.7029V10.276ZM30.5789 9.548H42.0169V10.514H30.5789V9.548Z" fill="#FF5252"/>
<rect x="0.5" y="10.9346" width="10" height="2" rx="0.5" stroke="#FF5252"/>
<path d="M5.54346 3.5C7.60846 3.50007 9.28271 5.17424 9.28271 7.23926V10.3262H1.8042V7.23926C1.8042 5.17419 3.47839 3.5 5.54346 3.5Z" stroke="#FF5252"/>
<mask id="path-4-outside-1_829_3" maskUnits="userSpaceOnUse" x="4.0542" y="7.2168" width="3" height="4" fill="black">
<rect fill="white" x="4.0542" y="7.2168" width="3" height="4"/>
<path d="M5.54346 8.2168C5.81351 8.2168 6.03258 8.43603 6.03271 8.70605C6.03271 8.91871 5.89608 9.09765 5.70654 9.16504V10.1729H5.38037V9.16504C5.19084 9.09765 5.0542 8.91871 5.0542 8.70605C5.05434 8.43603 5.2734 8.2168 5.54346 8.2168Z"/>
</mask>
<path d="M5.54346 8.2168V7.2168V8.2168ZM6.03271 8.70605H7.03271L7.03271 8.70555L6.03271 8.70605ZM5.70654 9.16504L5.37155 8.22282L4.70654 8.45925V9.16504H5.70654ZM5.70654 10.1729V11.1729H6.70654V10.1729H5.70654ZM5.38037 10.1729H4.38037V11.1729H5.38037V10.1729ZM5.38037 9.16504H6.38037V8.45925L5.71537 8.22282L5.38037 9.16504ZM5.0542 8.70605L4.0542 8.70555V8.70605H5.0542ZM5.54346 8.2168V9.2168C5.26072 9.2168 5.03286 8.98792 5.03271 8.70656L6.03271 8.70605L7.03271 8.70555C7.0323 7.88414 6.3663 7.2168 5.54346 7.2168V8.2168ZM6.03271 8.70605H5.03271C5.03271 8.4745 5.18261 8.28999 5.37155 8.22282L5.70654 9.16504L6.04154 10.1073C6.60954 9.90531 7.03271 9.36291 7.03271 8.70605H6.03271ZM5.70654 9.16504H4.70654V10.1729H5.70654H6.70654V9.16504H5.70654ZM5.70654 10.1729V9.17285H5.38037V10.1729V11.1729H5.70654V10.1729ZM5.38037 10.1729H6.38037V9.16504H5.38037H4.38037V10.1729H5.38037ZM5.38037 9.16504L5.71537 8.22282C5.9043 8.28999 6.0542 8.4745 6.0542 8.70605H5.0542H4.0542C4.0542 9.36291 4.47738 9.90531 5.04538 10.1073L5.38037 9.16504ZM5.0542 8.70605L6.0542 8.70656C6.05406 8.98792 5.82619 9.2168 5.54346 9.2168V8.2168V7.2168C4.72061 7.2168 4.05462 7.88414 4.0542 8.70555L5.0542 8.70605Z" fill="#FF5252" mask="url(#path-4-outside-1_829_3)"/>
</svg>
