<svg width="69" height="17" viewBox="0 0 69 17" fill="none" xmlns="http://www.w3.org/2000/svg">
<path d="M20.864 4.382H21.802V4.914C21.802 5.57667 21.648 6.188 21.34 6.748C21.032 7.29867 20.6073 7.77467 20.066 8.176C19.5247 8.57733 18.8947 8.876 18.176 9.072L17.658 8.176C18.1247 8.05467 18.554 7.88667 18.946 7.672C19.338 7.45733 19.674 7.21 19.954 6.93C20.2433 6.64067 20.4673 6.328 20.626 5.992C20.7847 5.64667 20.864 5.28733 20.864 4.914V4.382ZM21.074 4.382H22.012V4.914C22.012 5.25933 22.0913 5.59067 22.25 5.908C22.4087 6.22533 22.6327 6.51933 22.922 6.79C23.2207 7.05133 23.566 7.28 23.958 7.476C24.35 7.672 24.7793 7.826 25.246 7.938L24.742 8.834C24.21 8.70333 23.72 8.51667 23.272 8.274C22.824 8.022 22.432 7.728 22.096 7.392C21.7693 7.04667 21.5173 6.66867 21.34 6.258C21.1627 5.838 21.074 5.39 21.074 4.914V4.382ZM18.05 3.682H24.812V4.62H18.05V3.682ZM20.864 2.366H22.026V4.214H20.864V2.366ZM24.434 5.572H27.696V6.51H24.434V5.572ZM26.954 2.422H28.102V9.058H26.954V2.422ZM19.954 9.674H28.102V12.684H21.13V14.546H19.982V11.816H26.954V10.584H19.954V9.674ZM19.982 14.028H28.578V14.952H19.982V14.028ZM34.1909 10.024H35.3529V12.11H34.1909V10.024ZM39.7349 2.422H40.8969V15.092H39.7349V2.422ZM30.8169 12.684L30.6489 11.704C31.4516 11.6947 32.3196 11.6853 33.2529 11.676C34.1862 11.6667 35.1382 11.634 36.1089 11.578C37.0796 11.522 38.0176 11.4333 38.9229 11.312L39.0069 12.18C38.0736 12.3293 37.1262 12.4413 36.1649 12.516C35.2036 12.5813 34.2656 12.628 33.3509 12.656C32.4362 12.6747 31.5916 12.684 30.8169 12.684ZM30.9149 3.976H38.6009V4.914H30.9149V3.976ZM34.7509 5.628C35.3576 5.628 35.8896 5.726 36.3469 5.922C36.8042 6.118 37.1589 6.39333 37.4109 6.748C37.6722 7.09333 37.8029 7.504 37.8029 7.98C37.8029 8.44667 37.6722 8.85733 37.4109 9.212C37.1589 9.56667 36.8042 9.842 36.3469 10.038C35.8896 10.2247 35.3576 10.318 34.7509 10.318C34.1536 10.318 33.6262 10.2247 33.1689 10.038C32.7116 9.842 32.3569 9.56667 32.1049 9.212C31.8529 8.85733 31.7269 8.44667 31.7269 7.98C31.7269 7.504 31.8529 7.09333 32.1049 6.748C32.3569 6.39333 32.7116 6.118 33.1689 5.922C33.6262 5.726 34.1536 5.628 34.7509 5.628ZM34.7509 6.538C34.1909 6.538 33.7289 6.66867 33.3649 6.93C33.0009 7.19133 32.8189 7.54133 32.8189 7.98C32.8189 8.40933 33.0009 8.75467 33.3649 9.016C33.7289 9.27733 34.1909 9.408 34.7509 9.408C35.3296 9.408 35.7962 9.27733 36.1509 9.016C36.5149 8.75467 36.6969 8.40933 36.6969 7.98C36.6969 7.54133 36.5149 7.19133 36.1509 6.93C35.7962 6.66867 35.3296 6.538 34.7509 6.538ZM34.1909 2.436H35.3529V4.48H34.1909V2.436ZM52.0398 2.422H53.1878V15.092H52.0398V2.422ZM52.9218 7.63H55.2598V8.61H52.9218V7.63ZM43.3878 4.452H50.8498V5.404H43.3878V4.452ZM47.1818 6.44C47.7791 6.44 48.3065 6.566 48.7638 6.818C49.2305 7.07 49.5945 7.41533 49.8558 7.854C50.1265 8.28333 50.2618 8.78267 50.2618 9.352C50.2618 9.92133 50.1265 10.4253 49.8558 10.864C49.5945 11.3027 49.2305 11.648 48.7638 11.9C48.3065 12.1427 47.7791 12.264 47.1818 12.264C46.5845 12.264 46.0525 12.1427 45.5858 11.9C45.1285 11.648 44.7645 11.3027 44.4938 10.864C44.2231 10.4253 44.0878 9.92133 44.0878 9.352C44.0878 8.78267 44.2231 8.28333 44.4938 7.854C44.7645 7.41533 45.1285 7.07 45.5858 6.818C46.0525 6.566 46.5845 6.44 47.1818 6.44ZM47.1818 7.406C46.7991 7.406 46.4585 7.49 46.1598 7.658C45.8611 7.826 45.6231 8.05467 45.4458 8.344C45.2778 8.63333 45.1938 8.96933 45.1938 9.352C45.1938 9.73467 45.2778 10.0753 45.4458 10.374C45.6231 10.6633 45.8611 10.892 46.1598 11.06C46.4585 11.2187 46.7991 11.298 47.1818 11.298C47.5551 11.298 47.8911 11.2187 48.1898 11.06C48.4885 10.892 48.7218 10.6633 48.8898 10.374C49.0671 10.0753 49.1558 9.73467 49.1558 9.352C49.1558 8.96933 49.0671 8.63333 48.8898 8.344C48.7218 8.05467 48.4885 7.826 48.1898 7.658C47.8911 7.49 47.5551 7.406 47.1818 7.406ZM46.5798 2.576H47.7418V4.872H46.5798V2.576ZM65.5627 2.422H66.7247V15.092H65.5627V2.422ZM61.8527 3.794H63.0007C63.0007 4.70867 62.8887 5.59067 62.6647 6.44C62.4501 7.28933 62.1094 8.09667 61.6427 8.862C61.1761 9.618 60.5694 10.3227 59.8227 10.976C59.0761 11.6293 58.1707 12.2127 57.1067 12.726L56.4907 11.788C57.7134 11.2 58.7214 10.514 59.5147 9.73C60.3081 8.946 60.8961 8.07333 61.2787 7.112C61.6614 6.14133 61.8527 5.096 61.8527 3.976V3.794ZM57.0787 3.794H62.3427V4.732H57.0787V3.794Z" fill="#6C6C6C"/>
<rect x="0.5" y="13.5" width="10" height="2" rx="0.5" stroke="#6C6C6C"/>
<path d="M5.54346 6.06543C7.60846 6.0655 9.28271 7.73967 9.28271 9.80469V12.8916H1.8042V9.80469C1.8042 7.73962 3.47839 6.06543 5.54346 6.06543Z" stroke="#6C6C6C"/>
<mask id="path-4-outside-1_1247_2" maskUnits="userSpaceOnUse" x="4.0542" y="9.78223" width="3" height="4" fill="black">
<rect fill="white" x="4.0542" y="9.78223" width="3" height="4"/>
<path d="M5.54346 10.7822C5.81351 10.7822 6.03258 11.0015 6.03271 11.2715C6.03271 11.4841 5.89608 11.6631 5.70654 11.7305V12.7383H5.38037V11.7305C5.19084 11.6631 5.0542 11.4841 5.0542 11.2715C5.05434 11.0015 5.2734 10.7822 5.54346 10.7822Z"/>
</mask>
<path d="M5.54346 10.7822L5.54346 9.78223L5.54346 10.7822ZM6.03271 11.2715L7.03271 11.2715L7.03271 11.271L6.03271 11.2715ZM5.70654 11.7305L5.37155 10.7882L4.70654 11.0247V11.7305H5.70654ZM5.70654 12.7383V13.7383H6.70654V12.7383H5.70654ZM5.38037 12.7383H4.38037V13.7383H5.38037V12.7383ZM5.38037 11.7305H6.38037V11.0247L5.71537 10.7882L5.38037 11.7305ZM5.0542 11.2715L4.0542 11.271V11.2715H5.0542ZM5.54346 10.7822V11.7822C5.26072 11.7822 5.03286 11.5534 5.03271 11.272L6.03271 11.2715L7.03271 11.271C7.0323 10.4496 6.3663 9.78223 5.54346 9.78223V10.7822ZM6.03271 11.2715H5.03271C5.03271 11.0399 5.18261 10.8554 5.37155 10.7882L5.70654 11.7305L6.04154 12.6727C6.60954 12.4707 7.03271 11.9283 7.03271 11.2715H6.03271ZM5.70654 11.7305H4.70654V12.7383H5.70654H6.70654V11.7305H5.70654ZM5.70654 12.7383V11.7383H5.38037V12.7383V13.7383H5.70654V12.7383ZM5.38037 12.7383H6.38037V11.7305H5.38037H4.38037V12.7383H5.38037ZM5.38037 11.7305L5.71537 10.7882C5.9043 10.8554 6.0542 11.0399 6.0542 11.2715H5.0542H4.0542C4.0542 11.9283 4.47738 12.4707 5.04538 12.6727L5.38037 11.7305ZM5.0542 11.2715L6.0542 11.272C6.05406 11.5534 5.82619 11.7822 5.54346 11.7822L5.54346 10.7822L5.54346 9.78223C4.72061 9.78223 4.05462 10.4496 4.0542 11.271L5.0542 11.2715Z" fill="#6C6C6C" mask="url(#path-4-outside-1_1247_2)"/>
</svg>
