<svg width="28" height="26" viewBox="0 0 28 26" fill="none" xmlns="http://www.w3.org/2000/svg">
<mask id="path-1-outside-1_310_925" maskUnits="userSpaceOnUse" x="0" y="0.476562" width="28" height="25" fill="black">
<rect fill="white" y="0.476562" width="28" height="25"/>
<path d="M22.8672 2.47656C24.5238 2.47673 25.867 3.81999 25.8672 5.47656V17.0703C25.8672 18.7271 24.5239 20.0701 22.8672 20.0703H21.9971V22.1953C21.9971 23.1569 20.7724 23.5646 20.1963 22.7949L18.1582 20.0703H5C3.34315 20.0703 2 18.7272 2 17.0703V5.47656C2.0002 3.81988 3.34327 2.47656 5 2.47656H22.8672Z"/>
</mask>
<path d="M22.8672 2.47656L22.8674 0.476562H22.8672V2.47656ZM25.8672 5.47656H27.8672V5.47632L25.8672 5.47656ZM22.8672 20.0703V22.0703H22.8674L22.8672 20.0703ZM21.9971 20.0703V18.0703H19.9971V20.0703H21.9971ZM20.1963 22.7949L18.5948 23.9929L18.5951 23.9933L20.1963 22.7949ZM18.1582 20.0703L19.7597 18.8723L19.1598 18.0703H18.1582V20.0703ZM2 5.47656L0 5.47632V5.47656H2ZM22.8672 2.47656L22.867 4.47656C23.4191 4.47662 23.8671 4.92456 23.8672 5.47681L25.8672 5.47656L27.8672 5.47632C27.8668 2.71541 25.6284 0.47684 22.8674 0.476562L22.8672 2.47656ZM25.8672 5.47656H23.8672V17.0703H25.8672H27.8672V5.47656H25.8672ZM25.8672 17.0703H23.8672C23.8672 17.6223 23.4195 18.0703 22.867 18.0703L22.8672 20.0703L22.8674 22.0703C25.6283 22.07 27.8672 19.8318 27.8672 17.0703H25.8672ZM22.8672 20.0703V18.0703H21.9971V20.0703V22.0703H22.8672V20.0703ZM21.9971 20.0703H19.9971V22.1953H21.9971H23.9971V20.0703H21.9971ZM21.9971 22.1953H19.9971C19.9971 21.2352 21.2205 20.8256 21.7975 21.5965L20.1963 22.7949L18.5951 23.9933C20.3243 26.3037 23.9971 25.0785 23.9971 22.1953H21.9971ZM20.1963 22.7949L21.7978 21.5969L19.7597 18.8723L18.1582 20.0703L16.5567 21.2683L18.5948 23.9929L20.1963 22.7949ZM18.1582 20.0703V18.0703H5V20.0703V22.0703H18.1582V20.0703ZM5 20.0703V18.0703C4.44772 18.0703 4 17.6226 4 17.0703H2H0C0 19.8317 2.23858 22.0703 5 22.0703V20.0703ZM2 17.0703H4V5.47656H2H0V17.0703H2ZM2 5.47656L4 5.47681C4.00007 4.92426 4.44809 4.47656 5 4.47656V2.47656V0.476562C2.23846 0.476562 0.000341058 2.7155 0 5.47632L2 5.47656ZM5 2.47656V4.47656H22.8672V2.47656V0.476562H5V2.47656Z" fill="#2E2E2E" mask="url(#path-1-outside-1_310_925)"/>
<circle cx="7.80378" cy="10.8614" r="1.29011" fill="#2E2E2E"/>
<circle cx="13.609" cy="11.5064" r="1.93516" fill="#2E2E2E"/>
<circle cx="19.4132" cy="10.8614" r="1.29011" fill="#2E2E2E"/>
</svg>
