<svg width="13" height="12" viewBox="0 0 13 12" fill="none" xmlns="http://www.w3.org/2000/svg">
<mask id="path-1-outside-1_350_91" maskUnits="userSpaceOnUse" x="4" y="-1" width="9" height="13" fill="black">
<rect fill="white" x="4" y="-1" width="9" height="13"/>
<path d="M5.84277 1.5196C6.00473 1.06429 6.48589 0.871734 6.91699 1.08992C7.63539 1.45397 7.99888 2.3642 7.72949 3.12312H8.5C10.4327 3.12332 11.9998 4.69045 12 6.62312C12 8.55599 10.4328 10.1229 8.5 10.1231H5V3.12312H5.27246L5.84277 1.5196Z"/>
</mask>
<path d="M5.84277 1.5196L4.9006 1.18447L4.90059 1.1845L5.84277 1.5196ZM6.91699 1.08992L7.36902 0.197913L7.36856 0.197678L6.91699 1.08992ZM7.72949 3.12312L6.7871 2.7886C6.67843 3.09474 6.72524 3.43459 6.91263 3.69996C7.10002 3.96532 7.40464 4.12312 7.72949 4.12312V3.12312ZM8.5 3.12312L8.5001 2.12312H8.5V3.12312ZM12 6.62312H13V6.623L12 6.62312ZM8.5 10.1231V11.1231H8.5001L8.5 10.1231ZM5 10.1231H4C4 10.6754 4.44772 11.1231 5 11.1231V10.1231ZM5 3.12312V2.12312C4.44772 2.12312 4 2.57083 4 3.12312H5ZM5.27246 3.12312V4.12312C5.69556 4.12312 6.07286 3.85685 6.21464 3.45822L5.27246 3.12312ZM5.84277 1.5196L6.78494 1.85474C6.77316 1.88787 6.73204 1.94799 6.65039 1.98066C6.56868 2.01334 6.49716 1.99821 6.46543 1.98216L6.91699 1.08992L7.36856 0.197678C6.39938 -0.292823 5.26427 0.162082 4.9006 1.18447L5.84277 1.5196ZM6.91699 1.08992L6.46496 1.98192C6.73436 2.11844 6.88838 2.50328 6.7871 2.7886L7.72949 3.12312L8.67188 3.45764C9.10939 2.22512 8.53642 0.789497 7.36902 0.197913L6.91699 1.08992ZM7.72949 3.12312V4.12312H8.5V3.12312V2.12312H7.72949V3.12312ZM8.5 3.12312L8.4999 4.12312C9.88035 4.12326 10.9998 5.24274 11 6.62324L12 6.62312L13 6.623C12.9997 4.13816 10.985 2.12337 8.5001 2.12312L8.5 3.12312ZM12 6.62312H11C11 8.00361 9.88062 9.12298 8.4999 9.12312L8.5 10.1231L8.5001 11.1231C10.985 11.1229 13 9.10838 13 6.62312H12ZM8.5 10.1231V9.12312H5V10.1231V11.1231H8.5V10.1231ZM5 10.1231H6V3.12312H5H4V10.1231H5ZM5 3.12312V4.12312H5.27246V3.12312V2.12312H5V3.12312ZM5.27246 3.12312L6.21464 3.45822L6.78496 1.8547L5.84277 1.5196L4.90059 1.1845L4.33028 2.78802L5.27246 3.12312Z" fill="#2E2E2E" mask="url(#path-1-outside-1_350_91)"/>
<rect x="0.5" y="1.5" width="4" height="10" stroke="#2E2E2E" stroke-linejoin="round"/>
</svg>
