<svg width="11" height="15" viewBox="0 0 11 15" fill="none" xmlns="http://www.w3.org/2000/svg">
<rect x="0.5" y="12.5" width="10" height="2" rx="0.5" stroke="#FF5252"/>
<path d="M5.54395 5.06543C7.60895 5.0655 9.2832 6.73967 9.2832 8.80469V11.8916H1.80469V8.80469C1.80469 6.73962 3.47888 5.06543 5.54395 5.06543Z" stroke="#FF5252"/>
<rect x="5.2168" width="0.652174" height="3.26087" rx="0.326087" fill="#FF5252"/>
<rect x="8.47852" y="0.702148" width="0.652174" height="3.26087" rx="0.326087" transform="rotate(25.3779 8.47852 0.702148)" fill="#FF5252"/>
<rect width="0.652174" height="3.26087" rx="0.326087" transform="matrix(-0.903501 0.428587 0.428587 0.903501 2.54492 0.702148)" fill="#FF5252"/>
<mask id="path-6-outside-1_329_7961" maskUnits="userSpaceOnUse" x="4.05469" y="8.78223" width="3" height="4" fill="black">
<rect fill="white" x="4.05469" y="8.78223" width="3" height="4"/>
<path d="M5.54395 9.78223C5.814 9.78223 6.03307 10.0015 6.0332 10.2715C6.0332 10.4841 5.89656 10.6631 5.70703 10.7305V11.7383H5.38086V10.7305C5.19133 10.6631 5.05469 10.4841 5.05469 10.2715C5.05483 10.0015 5.27389 9.78223 5.54395 9.78223Z"/>
</mask>
<path d="M5.54395 9.78223V8.78223V9.78223ZM6.0332 10.2715H7.0332L7.0332 10.271L6.0332 10.2715ZM5.70703 10.7305L5.37204 9.78825L4.70703 10.0247V10.7305H5.70703ZM5.70703 11.7383V12.7383H6.70703V11.7383H5.70703ZM5.38086 11.7383H4.38086V12.7383H5.38086V11.7383ZM5.38086 10.7305H6.38086V10.0247L5.71585 9.78825L5.38086 10.7305ZM5.05469 10.2715L4.05469 10.271V10.2715H5.05469ZM5.54395 9.78223V10.7822C5.26121 10.7822 5.03335 10.5534 5.0332 10.272L6.0332 10.2715L7.0332 10.271C7.03278 9.44957 6.36679 8.78223 5.54395 8.78223V9.78223ZM6.0332 10.2715H5.0332C5.0332 10.0399 5.1831 9.85542 5.37204 9.78825L5.70703 10.7305L6.04203 11.6727C6.61003 11.4707 7.0332 10.9283 7.0332 10.2715H6.0332ZM5.70703 10.7305H4.70703V11.7383H5.70703H6.70703V10.7305H5.70703ZM5.70703 11.7383V10.7383H5.38086V11.7383V12.7383H5.70703V11.7383ZM5.38086 11.7383H6.38086V10.7305H5.38086H4.38086V11.7383H5.38086ZM5.38086 10.7305L5.71585 9.78825C5.90479 9.85542 6.05469 10.0399 6.05469 10.2715H5.05469H4.05469C4.05469 10.9283 4.47786 11.4707 5.04586 11.6727L5.38086 10.7305ZM5.05469 10.2715L6.05469 10.272C6.05454 10.5534 5.82668 10.7822 5.54395 10.7822V9.78223V8.78223C4.7211 8.78223 4.05511 9.44957 4.05469 10.271L5.05469 10.2715Z" fill="#FF5252" mask="url(#path-6-outside-1_329_7961)"/>
</svg>
