<svg width="355" height="315" viewBox="0 0 355 315" fill="none" xmlns="http://www.w3.org/2000/svg">
<path d="M26.6536 28.1001C44.4196 11.1704 72.9998 13.6241 87.6201 33.3342L96.2093 44.9142C106.856 59.2674 105.136 79.3058 92.1986 91.6342L86.9557 96.6303C74.0182 108.959 53.9202 109.711 40.0967 98.3852L28.9448 89.2473C9.96204 73.6943 8.88777 45.0297 26.6536 28.1001Z" fill="#E3DAD5" stroke="#8E755B" stroke-width="9"/>
<path d="M328.346 29.562C310.58 12.6323 282 15.086 267.38 34.7962L258.791 46.3762C248.144 60.7293 249.864 80.7677 262.801 93.0961L268.044 98.0922C280.982 110.42 301.08 111.173 314.903 99.8471L326.055 90.7092C345.038 75.1562 346.112 46.4916 328.346 29.562Z" fill="#E3DAD5" stroke="#8E755B" stroke-width="9"/>
<mask id="path-3-outside-1_657_2" maskUnits="userSpaceOnUse" x="4.18555" y="-0.21582" width="350" height="293" fill="black">
<rect fill="white" x="4.18555" y="-0.21582" width="350" height="293"/>
<path d="M175.194 9.79102C176.618 9.78598 178.043 9.7991 179.466 9.82812V283.123H97.8027C73.2705 283.123 48.8414 274.456 35.3936 253.938C26.6586 240.611 18.2746 223.505 15.5156 204.302C9.01769 159.073 27.2719 112.847 49.8271 73.7803C72.3826 34.7138 120.912 9.98292 175.194 9.79102ZM183.725 9.78516C238.007 9.97708 286.537 34.7075 309.092 73.7744C331.647 112.841 349.901 159.066 343.403 204.295C340.644 223.499 332.26 240.605 323.525 253.933C310.077 274.45 285.648 283.116 261.116 283.116H179.468V9.82129C180.886 9.79248 182.306 9.78014 183.725 9.78516Z"/>
</mask>
<path d="M175.194 9.79102C176.618 9.78598 178.043 9.7991 179.466 9.82812V283.123H97.8027C73.2705 283.123 48.8414 274.456 35.3936 253.938C26.6586 240.611 18.2746 223.505 15.5156 204.302C9.01769 159.073 27.2719 112.847 49.8271 73.7803C72.3826 34.7138 120.912 9.98292 175.194 9.79102ZM183.725 9.78516C238.007 9.97708 286.537 34.7075 309.092 73.7744C331.647 112.841 349.901 159.066 343.403 204.295C340.644 223.499 332.26 240.605 323.525 253.933C310.077 274.45 285.648 283.116 261.116 283.116H179.468V9.82129C180.886 9.79248 182.306 9.78014 183.725 9.78516Z" fill="#FFE56D"/>
<path d="M175.194 9.79102L175.163 0.791072L175.163 0.791072L175.194 9.79102ZM179.466 9.82812H188.466V1.0098L179.649 0.829996L179.466 9.82812ZM179.466 283.123V292.123H188.466V283.123H179.466ZM35.3936 253.938L27.8662 258.872L27.8663 258.872L35.3936 253.938ZM15.5156 204.302L6.60709 205.582L6.6071 205.582L15.5156 204.302ZM49.8271 73.7803L42.033 69.2802L42.0329 69.2803L49.8271 73.7803ZM183.725 9.78516L183.756 0.785213L183.756 0.785212L183.725 9.78516ZM309.092 73.7744L316.886 69.2744L316.886 69.2744L309.092 73.7744ZM343.403 204.295L352.312 205.575L352.312 205.575L343.403 204.295ZM323.525 253.933L331.053 258.866L331.053 258.866L323.525 253.933ZM179.468 283.116H170.468V292.116H179.468V283.116ZM179.468 9.82129L179.285 0.823145L170.468 1.00224V9.82129H179.468ZM175.194 9.79102L175.226 18.791C176.574 18.7862 177.926 18.7986 179.282 18.8263L179.466 9.82812L179.649 0.829996C178.159 0.799604 176.663 0.78577 175.163 0.791072L175.194 9.79102ZM179.466 9.82812H170.466V283.123H179.466H188.466V9.82812H179.466ZM179.466 283.123V274.123H97.8027V283.123V292.123H179.466V283.123ZM97.8027 283.123V274.123C75.0672 274.123 54.1254 266.1 42.9209 249.005L35.3936 253.938L27.8663 258.872C43.5575 282.813 71.4738 292.123 97.8027 292.123V283.123ZM35.3936 253.938L42.9209 249.005C34.6214 236.342 26.9334 220.487 24.4242 203.022L15.5156 204.302L6.6071 205.582C9.61581 226.523 18.6957 244.88 27.8662 258.872L35.3936 253.938ZM15.5156 204.302L24.4242 203.022C18.3656 160.851 35.3606 116.837 57.6214 78.2803L49.8271 73.7803L42.0329 69.2803C19.1832 108.857 -0.330192 157.294 6.60709 205.582L15.5156 204.302ZM49.8271 73.7803L57.6213 78.2803C78.2213 42.6008 123.372 18.9743 175.226 18.791L175.194 9.79102L175.163 0.791072C118.453 0.991556 66.5439 26.8267 42.033 69.2802L49.8271 73.7803ZM183.725 9.78516L183.693 18.7851C235.547 18.9684 280.698 42.5946 301.298 78.2744L309.092 73.7744L316.886 69.2744C292.375 26.8204 240.467 0.985722 183.756 0.785213L183.725 9.78516ZM309.092 73.7744L301.298 78.2744C323.558 116.831 340.553 160.844 334.495 203.015L343.403 204.295L352.312 205.575C359.249 157.288 339.736 108.851 316.886 69.2744L309.092 73.7744ZM343.403 204.295L334.495 203.015C331.985 220.48 324.297 236.336 315.998 248.999L323.525 253.933L331.053 258.866C340.223 244.874 349.303 226.517 352.312 205.575L343.403 204.295ZM323.525 253.933L315.998 248.999C304.794 266.094 283.852 274.116 261.116 274.116V283.116V292.116C287.445 292.116 315.361 282.807 331.053 258.866L323.525 253.933ZM261.116 283.116V274.116H179.468V283.116V292.116H261.116V283.116ZM179.468 283.116H188.468V9.82129H179.468H170.468V283.116H179.468ZM179.468 9.82129L179.651 18.8194C180.999 18.792 182.347 18.7803 183.693 18.7851L183.725 9.78516L183.756 0.785212C182.264 0.77994 180.773 0.792921 179.285 0.823145L179.468 9.82129Z" fill="#8E755B" mask="url(#path-3-outside-1_657_2)"/>
<path d="M43.8199 225.09C45.3106 225.08 46.4996 225.664 47.1793 226.056C48.4654 226.797 49.9429 228.1 51.1823 229.154C52.5988 230.359 54.3077 231.792 56.4982 233.373C65.1227 239.595 82.0305 248.673 116.569 251.405C152.11 254.215 172.104 261.725 182.692 271.351C193.745 281.399 193.913 293.086 191.794 301.635C190.81 305.603 187.624 307.71 184.487 308.744C181.388 309.765 177.555 310.045 173.49 309.94C165.288 309.73 154.613 307.891 143.331 305.394C120.842 300.415 94.2832 292.411 78.2883 288.346C43.1643 279.418 32.9797 249.882 37.2944 232.474C37.5428 231.471 37.8124 230.517 38.1296 229.68C38.4249 228.902 38.8916 227.866 39.6956 226.975C40.6405 225.928 42.0488 225.102 43.8199 225.09Z" fill="#FFE56D" stroke="#8E755B" stroke-width="9"/>
<path d="M314.995 225.09C313.504 225.08 312.315 225.664 311.635 226.056C310.349 226.797 308.872 228.1 307.632 229.154C306.216 230.359 304.507 231.792 302.316 233.373C293.692 239.595 276.784 248.673 242.246 251.405C206.705 254.215 186.711 261.725 176.122 271.351C165.069 281.399 164.902 293.086 167.021 301.635C168.004 305.603 171.19 307.71 174.327 308.744C177.427 309.765 181.259 310.045 185.324 309.94C193.527 309.73 204.202 307.891 215.483 305.394C237.972 300.415 264.531 292.411 280.526 288.346C315.65 279.418 325.835 249.882 321.52 232.474C321.272 231.471 321.002 230.517 320.685 229.68C320.39 228.902 319.923 227.866 319.119 226.975C318.174 225.928 316.766 225.102 314.995 225.09Z" fill="#FFE56D" stroke="#8E755B" stroke-width="9"/>
<path d="M31.7963 85.7673C14.9054 71.9282 13.95 46.4226 29.7582 31.3586C45.5663 16.2947 70.9963 18.4779 84.0054 36.016L92.5954 47.5964C101.889 60.125 100.387 77.6155 89.0942 88.3768L83.851 93.3731C72.5581 104.134 55.0156 104.791 42.9493 94.9052L31.7963 85.7673Z" fill="#E3DAD5"/>
<path d="M46.3341 83.7687C35.0155 74.4951 34.3753 57.4037 44.9684 47.3093C55.5615 37.2149 72.6022 38.6779 81.3196 50.4302L87.0758 58.1902C93.3033 66.5857 92.297 78.3062 84.7296 85.5173L81.2162 88.8654C73.6488 96.0765 61.8935 96.5169 53.8078 89.892L46.3341 83.7687Z" fill="#B9AFA9"/>
<path d="M323.204 87.2292C340.095 73.3901 341.05 47.8845 325.242 32.8205C309.434 17.7566 284.004 19.9398 270.995 37.4779L262.405 49.0583C253.111 61.587 254.613 79.0774 265.906 89.8387L271.149 94.835C282.442 105.596 299.984 106.253 312.051 96.3671L323.204 87.2292Z" fill="#E3DAD5"/>
<path d="M308.666 85.2384C319.985 75.9648 320.625 58.8734 310.032 48.779C299.439 38.6846 282.398 40.1476 273.68 51.8999L267.924 59.66C261.697 68.0555 262.703 79.7759 270.27 86.9871L273.784 90.3351C281.351 97.5462 293.107 97.9866 301.192 91.3618L308.666 85.2384Z" fill="#B9AFA9"/>
<path d="M183.709 9.77648C237.991 9.96848 286.521 34.6989 309.076 73.7657C331.631 112.833 349.886 159.058 343.388 204.287C340.628 223.491 332.245 240.597 323.51 253.924C310.062 274.442 285.633 283.109 261.1 283.109H179.452V283.123H97.7879C73.2558 283.123 48.8275 274.456 35.3797 253.939C26.6447 240.611 18.2608 223.505 15.5018 204.302C9.00381 159.073 27.2571 112.847 49.8124 73.7804C72.3677 34.7136 120.898 9.983 175.181 9.79113C176.605 9.7861 178.029 9.79921 179.452 9.82824V9.81261C180.87 9.78381 182.29 9.77146 183.709 9.77648Z" fill="#FFE56D"/>
<path d="M45.4682 160.477C57.5575 97.6134 112.564 52.1768 176.58 52.1768C237.798 52.1768 291.173 93.8098 306.078 153.186L308.925 164.53C322.059 216.854 287.779 269.186 233.963 272.929C215.429 274.218 195.685 275.08 176.02 275.08C155.609 275.08 135.61 274.151 117.205 272.78C66.6387 269.013 33.8191 221.053 43.3949 171.259L45.4682 160.477Z" fill="#E3DAD5"/>
<mask id="mask0_657_2" style="mask-type:alpha" maskUnits="userSpaceOnUse" x="41" y="52" width="271" height="224">
<path d="M45.4682 160.485C57.5575 97.6213 112.564 52.1846 176.58 52.1846C237.798 52.1846 291.173 93.8176 306.078 153.194L308.925 164.538C322.059 216.862 287.779 269.193 233.963 272.937C215.429 274.226 195.685 275.088 176.02 275.088C155.609 275.088 135.61 274.159 117.205 272.788C66.6387 269.021 33.8191 221.061 43.3949 171.267L45.4682 160.485Z" fill="#E8E7ED"/>
</mask>
<g mask="url(#mask0_657_2)">
<path d="M179.449 148.801C184.448 148.801 189.306 149.685 193.956 151.354C194.184 151.398 194.835 151.577 196.366 152.299C199.531 153.641 202.59 155.349 205.521 157.392C206.121 157.754 206.751 158.138 207.413 158.545C219.112 165.749 221.821 172.953 237.077 173.377C242.412 173.525 247.747 173.153 252.43 172.609C281.45 165.448 306.896 170.287 316.194 187.061C329.132 210.402 305.903 248.014 264.31 271.07C253.521 277.051 242.556 281.464 232.006 284.313C221.384 310.75 201.824 328.479 179.449 328.479C157.077 328.479 137.516 310.754 126.893 284.323C116.333 281.474 105.355 277.058 94.5533 271.07C52.9599 248.014 29.7301 210.402 42.6685 187.061C51.9652 170.29 77.4048 165.45 106.419 172.606C111.108 173.152 116.455 173.525 121.801 173.377C137.057 172.953 139.766 165.749 151.465 158.545C152.181 158.104 152.86 157.69 153.503 157.302C156.344 155.335 159.304 153.681 162.364 152.37C164.081 151.551 164.752 151.383 164.954 151.35C169.6 149.683 174.454 148.801 179.449 148.801Z" fill="#FFFCF8"/>
</g>
<ellipse cx="179.439" cy="172.096" rx="16.1033" ry="12.2893" fill="#2E2E2E"/>
<path d="M226.49 145.504C234.851 137.589 248.63 141.433 251.687 152.532L252.388 155.078C255.012 164.607 246.235 173.354 236.715 170.699L229.897 168.797C220.377 166.141 217.396 154.114 224.573 147.319L226.49 145.504Z" fill="#020202"/>
<path d="M133.938 145.504C125.577 137.589 111.798 141.433 108.741 152.532L108.041 155.078C105.417 164.607 114.196 173.354 123.716 170.698C124.899 170.368 126.044 170.048 127.122 169.747C128.2 169.447 129.345 169.127 130.529 168.797C140.049 166.141 143.033 154.113 135.855 147.319L133.938 145.504Z" fill="#020202"/>
<ellipse cx="124.357" cy="148.363" rx="5.93278" ry="3.81393" fill="white"/>
<ellipse cx="234.548" cy="148.363" rx="5.93278" ry="3.81393" fill="white"/>
<ellipse cx="229.071" cy="132.875" rx="13.5606" ry="7.62787" transform="rotate(-12.419 229.071 132.875)" fill="#FFFCF8"/>
<ellipse cx="13.5606" cy="7.62787" rx="13.5606" ry="7.62787" transform="matrix(-0.976601 -0.215058 -0.215058 0.976601 144.793 128.342)" fill="#FFFCF8"/>
<ellipse cx="179.5" cy="200.502" rx="11.5" ry="13.5" fill="#FFA8A8"/>
<path d="M179.473 184.462C179.529 184.492 179.599 184.529 179.682 184.573C179.925 184.702 180.281 184.891 180.727 185.121C181.619 185.583 182.867 186.214 184.285 186.895C187.162 188.276 190.591 189.784 193.175 190.526C195.807 191.283 198.31 191.684 200.161 191.896C201.084 192.001 201.836 192.057 202.351 192.088C202.608 192.103 202.807 192.112 202.936 192.117C203 192.12 203.048 192.121 203.078 192.122C203.092 192.122 203.102 192.123 203.108 192.123H203.11C204.514 192.147 205.633 193.304 205.61 194.708C205.586 196.112 204.427 197.23 203.024 197.207H203.015C203.011 197.207 203.004 197.206 202.997 197.206C202.984 197.206 202.965 197.206 202.942 197.205C202.895 197.204 202.831 197.202 202.748 197.199C202.583 197.193 202.348 197.183 202.05 197.165C201.455 197.13 200.61 197.065 199.585 196.948C197.542 196.715 194.747 196.269 191.771 195.414C188.746 194.545 184.989 192.873 182.084 191.479C181.133 191.022 180.258 190.585 179.507 190.205C178.827 190.58 178.038 191.008 177.175 191.455C174.469 192.856 170.902 194.545 167.843 195.424C164.867 196.279 162.072 196.725 160.029 196.958C159.004 197.075 158.16 197.139 157.565 197.175C157.267 197.192 157.031 197.204 156.866 197.21C156.783 197.213 156.719 197.214 156.672 197.215C156.649 197.215 156.63 197.217 156.617 197.217H156.593L156.592 197.218H156.59C155.186 197.241 154.028 196.122 154.004 194.718C153.981 193.314 155.101 192.156 156.505 192.133H156.506C156.512 192.133 156.523 192.132 156.537 192.132C156.567 192.131 156.615 192.13 156.679 192.128C156.808 192.123 157.006 192.114 157.263 192.099C157.778 192.068 158.531 192.012 159.453 191.906C161.305 191.695 163.808 191.292 166.44 190.536C168.989 189.804 172.183 188.313 174.836 186.939C176.141 186.264 177.278 185.636 178.086 185.178C178.49 184.949 178.811 184.763 179.03 184.636C179.139 184.572 179.222 184.523 179.278 184.49C179.305 184.474 179.326 184.461 179.339 184.453C179.346 184.449 179.351 184.446 179.354 184.444L179.356 184.442L179.43 184.388L179.473 184.462Z" fill="black"/>
<path d="M43.8451 95.8055L39.1836 164.88C39.1836 164.88 74.989 122.457 101.054 99.6194C127.119 76.7814 193.012 40.7154 193.012 40.7154L168.434 30.1211L43.8451 95.8055Z" fill="#FFE56D"/>
<path d="M314.2 95.8135L318.861 164.888C318.861 164.888 283.056 122.465 256.991 99.6274C230.926 76.7894 167.152 34.7905 167.152 34.7905L191.73 24.1963L314.2 95.8135Z" fill="#FFE56D"/>
<ellipse cx="125.195" cy="161.911" rx="8.4754" ry="6.35655" transform="rotate(-8.48121 125.195 161.911)" fill="#4E5867"/>
<ellipse cx="8.4754" cy="6.35655" rx="8.4754" ry="6.35655" transform="matrix(-0.989064 -0.147485 -0.147485 0.989064 245.547 157.214)" fill="#4E5867"/>
<path d="M187.433 300.528C183.717 315.521 112.09 292.295 79.3711 283.978C46.6526 275.662 37.9396 248.576 41.6556 233.584C45.3716 218.591 45.6932 250.32 116.239 255.898C186.784 261.477 191.149 285.536 187.433 300.528Z" fill="#FFE56D"/>
<path d="M171.382 300.528C175.098 315.521 246.725 292.295 279.443 283.978C312.162 275.662 320.875 248.576 317.159 233.584C313.443 218.591 313.121 250.32 242.576 255.898C172.03 261.477 167.666 285.536 171.382 300.528Z" fill="#FFE56D"/>
<circle cx="126.054" cy="279.302" r="4.2377" fill="#F2B83C"/>
<circle cx="231.15" cy="279.302" r="4.2377" fill="#F2B83C"/>
</svg>
