<svg width="23" height="23" viewBox="0 0 23 23" fill="none" xmlns="http://www.w3.org/2000/svg">
<path d="M5.05824 4.94078C7.78683 2.21252 12.2111 2.21217 14.9398 4.94078C17.4234 7.42448 17.6443 11.3117 15.6068 14.0475L17.9395 16.3802C18.3702 16.8109 18.3702 17.5086 17.9395 17.9394C17.5087 18.3701 16.8103 18.3708 16.3795 17.9401L14.0276 15.5881C11.3003 17.5184 7.50161 17.2643 5.05893 14.8216C2.33027 12.0929 2.32983 7.66935 5.05824 4.94078ZM6.37785 6.26039C4.37737 8.26096 4.37731 11.5049 6.37785 13.5055C8.37842 15.5057 11.6218 15.5051 13.6222 13.5048C15.6224 11.5043 15.623 8.26089 13.6229 6.26039C11.6225 4.25992 8.37844 4.26012 6.37785 6.26039Z" fill="#5E60CE"/>
<circle cx="6.5" cy="9.38086" r="0.5" fill="#5E60CE"/>
<circle cx="9.49902" cy="9.38086" r="1.5" fill="#5E60CE"/>
<circle cx="12.499" cy="9.38086" r="0.5" fill="#5E60CE"/>
</svg>
